<?xml version="1.0" encoding="UTF-8" standalone="no"?>
<!-- Created with Inkscape (http://www.inkscape.org/) -->

<svg
   width="124"
   height="65"
   viewBox="0 0 31.962651 16.754615"
   version="1.1"
   id="svg5"
   xml:space="preserve"
   inkscape:version="1.2.2 (b0a8486541, 2022-12-01)"
   sodipodi:docname="plane.svg"
   inkscape:export-filename="plane1.png"
   inkscape:export-xdpi="205.54495"
   inkscape:export-ydpi="205.54495"
   xmlns:inkscape="http://www.inkscape.org/namespaces/inkscape"
   xmlns:sodipodi="http://sodipodi.sourceforge.net/DTD/sodipodi-0.dtd"
   xmlns:xlink="http://www.w3.org/1999/xlink"
   xmlns="http://www.w3.org/2000/svg"
   xmlns:svg="http://www.w3.org/2000/svg"><sodipodi:namedview
     id="namedview7"
     pagecolor="#ffffff"
     bordercolor="#000000"
     borderopacity="0.25"
     inkscape:showpageshadow="2"
     inkscape:pageopacity="0.0"
     inkscape:pagecheckerboard="0"
     inkscape:deskcolor="#d1d1d1"
     inkscape:document-units="mm"
     showgrid="false"
     inkscape:zoom="6.0435465"
     inkscape:cx="81.078221"
     inkscape:cy="40.952775"
     inkscape:window-width="1920"
     inkscape:window-height="987"
     inkscape:window-x="0"
     inkscape:window-y="0"
     inkscape:window-maximized="1"
     inkscape:current-layer="layer1" /><defs
     id="defs2"><linearGradient
       inkscape:collect="always"
       id="linearGradient3779"><stop
         style="stop-color:#393bdc;stop-opacity:1;"
         offset="0.36631578"
         id="stop3775" /><stop
         style="stop-color:#393bdc;stop-opacity:0;"
         offset="1"
         id="stop3777" /></linearGradient><linearGradient
       inkscape:collect="always"
       id="linearGradient1333"><stop
         style="stop-color:#0000ff;stop-opacity:1;"
         offset="0"
         id="stop1329" /><stop
         style="stop-color:#ffffff;stop-opacity:1;"
         offset="1"
         id="stop1331" /></linearGradient><linearGradient
       inkscape:collect="always"
       id="linearGradient1325"><stop
         style="stop-color:#000000;stop-opacity:1;"
         offset="0"
         id="stop1321" /><stop
         style="stop-color:#ffffff;stop-opacity:1;"
         offset="1"
         id="stop1323" /></linearGradient><linearGradient
       inkscape:collect="always"
       id="linearGradient1315"><stop
         style="stop-color:#ff0000;stop-opacity:1;"
         offset="0"
         id="stop1311" /><stop
         style="stop-color:#343232;stop-opacity:1;"
         offset="1"
         id="stop1313" /></linearGradient><linearGradient
       inkscape:collect="always"
       xlink:href="#linearGradient1315"
       id="linearGradient1317"
       x1="4.8146696"
       y1="5.483851"
       x2="5.0406451"
       y2="7.104887"
       gradientUnits="userSpaceOnUse"
       gradientTransform="translate(0.15079406,0.43730279)" /><linearGradient
       inkscape:collect="always"
       xlink:href="#linearGradient1325"
       id="linearGradient1327"
       x1="6.567091"
       y1="5.3924646"
       x2="6.8335476"
       y2="4.985321"
       gradientUnits="userSpaceOnUse"
       spreadMethod="pad"
       gradientTransform="translate(0.15079406,0.43730279)" /><linearGradient
       inkscape:collect="always"
       xlink:href="#linearGradient1333"
       id="linearGradient1335"
       x1="8.0216875"
       y1="5.7507296"
       x2="10.962766"
       y2="5.9316826"
       gradientUnits="userSpaceOnUse"
       gradientTransform="translate(0.15079406,0.43730279)" /><linearGradient
       inkscape:collect="always"
       xlink:href="#linearGradient3779"
       id="linearGradient3781"
       x1="2.1634667"
       y1="7.1396551"
       x2="0.24406403"
       y2="7.0436902"
       gradientUnits="userSpaceOnUse" /></defs><g
     inkscape:label="Layer 1"
     inkscape:groupmode="layer"
     id="layer1"><g
       id="g3793"
       transform="matrix(1.4683793,0,0,2.0798403,7.6922789,-3.6018095)"><path
         style="opacity:1;fill:url(#linearGradient3781);fill-opacity:1;stroke:none;stroke-width:0.0974224;stroke-dasharray:none;stroke-opacity:1"
         d="M 2.2166728,6.0016039 2.1412757,8.0976414 0.4750013,8.2258164 0.15079407,7.9091487 0.45992189,7.524624 0.11309555,6.7706534 0.44484249,6.4615258 0.1357147,5.9412864 0.64841447,5.7301744 Z"
         id="path3663"
         sodipodi:nodetypes="cccccccccc" /><path
         style="opacity:1;fill:#00ffff;fill-opacity:1;stroke:none;stroke-width:0.0974224;stroke-dasharray:none;stroke-opacity:1"
         d="M 2.0809581,6.3182713 2.0055611,7.826212 0.84444678,7.9166885 0.67192139,7.6674992 0.96599675,7.2168547 0.72204715,6.894412 1.0480187,6.5369227 0.70349266,6.3859068 0.98770112,6.024223 Z"
         id="path3719"
         sodipodi:nodetypes="cccccccccc" /></g><g
       id="g3607"
       transform="matrix(2.0798403,0,0,2.0798403,6.3368702,-3.6018095)"><path
         style="fill:#000000;stroke-width:0.974224"
         d="m 2.5710388,5.3984277 c 0,0 -0.88852,0.1475734 -0.9273835,0.4599218 -0.068013,0.5466262 0.00162,1.4693762 0.00754,2.1035771 0.00385,0.4128951 0.9500026,0.5277794 0.9500026,0.5277794 z"
         id="path568"
         sodipodi:nodetypes="csscc" /><path
         style="fill:#976d6d;fill-opacity:1;stroke:none;stroke-width:0.0974224;stroke-dasharray:none;stroke-opacity:1"
         d="M 2.5031814,8.7309763 C 2.6705159,9.5594728 12.332505,8.8714236 11.988128,8.0222443 11.643752,7.173065 10.706379,7.4039886 10.706379,7.4039886 c 0,0 -8.370532,0.4984912 -8.2031976,1.3269877 z"
         id="path1337"
         sodipodi:nodetypes="zzcz" /><path
         style="fill:#ff0000;stroke-width:0.974224"
         d="M 3.2571518,2.4353242 C 2.2092722,2.2965057 3.2999969,5.1977732 2.5107212,5.3758085 2.4337166,6.4940882 2.0533785,9.0515445 2.7142931,8.866691 5.5463838,8.0745736 9.6514694,8.1740679 12.018288,7.9920855 12.252274,7.4610653 5.2701134,3.026525 3.2571518,2.4353242 Z"
         id="path416"
         sodipodi:nodetypes="ccscc" /><path
         style="fill:#ff8c8c;fill-opacity:1;stroke:none;stroke-width:0.0974224;stroke-dasharray:none;stroke-opacity:1"
         d="m 7.9317678,7.8412915 c 0.7813774,0.3280869 2.7489662,0.2264651 3.6341372,0.1206353 -0.08909,-0.6159039 -1.462703,-1.4627024 -1.462703,-1.4627024 0,0 -2.1050618,0.4508718 -2.1714342,1.3420671 z"
         id="path1889"
         sodipodi:nodetypes="cccc" /><path
         style="fill:url(#linearGradient1335);fill-opacity:1;stroke-width:0.974224"
         d="M 8.3539914,5.2250144 C 7.9128778,5.1885921 8.3736497,6.208655 8.7008176,6.5067639 9.191003,6.9534112 10.64563,7.5090249 10.66114,6.8460506 10.671258,6.413541 8.6711868,5.2512049 8.3539914,5.2250144 Z"
         id="path730"
         sodipodi:nodetypes="ssss" /><path
         style="fill:url(#linearGradient1317);fill-opacity:1;stroke:none;stroke-width:0.0974224;stroke-dasharray:none;stroke-opacity:1"
         d="M 3.2119137,6.3861286 C 3.4414235,7.4941628 5.8168795,7.090043 6.464622,6.7761418 L 6.3065102,5.1058948 C 5.0174866,5.1205578 2.8737361,4.7534645 3.2119137,6.3861286 Z"
         id="path1286"
         sodipodi:nodetypes="sccs" /><path
         style="fill:url(#linearGradient1327);fill-opacity:1;stroke:none;stroke-width:0.0974224;stroke-dasharray:none;stroke-opacity:1"
         d="M 6.2956616,5.0932104 C 6.3703006,5.0825489 7.3339765,5.3374241 7.3534822,5.7846723 7.3729256,6.230491 6.4550115,6.7928381 6.4550115,6.7928381 Z"
         id="path1319"
         sodipodi:nodetypes="cscc" /><path
         style="fill:#dc3939;fill-opacity:0.842239;stroke:none;stroke-width:0.0974224;stroke-dasharray:none;stroke-opacity:1"
         d="m 3.2873108,2.8650873 0.3317468,1.854767 c 0,0 1.5669369,0.4378949 2.1563551,-0.1357148 C 5.6108605,3.980371 4.2373133,3.2269931 4.2373133,3.2269931"
         id="path1887"
         sodipodi:nodetypes="cccc" /></g></g></svg>
